<svg xmlns="http://www.w3.org/2000/svg" xmlns:xlink="http://www.w3.org/1999/xlink" width="31.243" height="31.243" viewBox="0 0 31.243 31.243">
  <defs>
    <clipPath id="clip-path">
      <rect id="Rectangle_2086" data-name="Rectangle 2086" width="31.243" height="31.243" transform="translate(0 0)" fill="#b1b1b1" stroke="#707070" stroke-width="1"/>
    </clipPath>
  </defs>
  <g id="Mask_Group_3809" data-name="Mask Group 3809" clip-path="url(#clip-path)">
    <g id="family-house" transform="translate(0.142 1.764)">
      <path id="Path_1453" data-name="Path 1453" d="M30.948,18.875a1.437,1.437,0,0,0-.609-1.018l-4.358-3.118V8.592a.469.469,0,0,0-.469-.47H21.84a.469.469,0,0,0-.47.47V11.44L15.75,7.42a.47.47,0,0,0-.545,0L.613,17.857a1.442,1.442,0,0,0-.607,1.018,1.4,1.4,0,0,0,.364,1.093l.1.111a1.651,1.651,0,0,0,1.23.537,1.683,1.683,0,0,0,.976-.31l1.766-1.263V34.109H1.909a.469.469,0,1,0,0,.938H29.046a.469.469,0,1,0,0-.938H26.513V19.044l.379.271,1.387.992a1.689,1.689,0,0,0,2.189-.217l.122-.127A1.394,1.394,0,0,0,30.948,18.875Zm-8.64-9.814h2.735v5.007l-2.735-1.957ZM11.739,34.109H5.381V31.368h6.358Zm6.54,0h-5.6V26.823h5.6Zm0-8.225h-5.6V24.827h5.6Zm7.3,8.225H19.217V31.368h6.358Zm0-3.68H19.217V24.358a.469.469,0,0,0-.469-.469h-6.54a.469.469,0,0,0-.47.469V30.43H5.381V18.373l10.1-7.223,10.1,7.223Zm4.327-11.1-.124.129a.743.743,0,0,1-.954.089l-1.386-.991L15.751,10.191a.472.472,0,0,0-.546,0L2.132,19.543a.753.753,0,0,1-.966-.094l-.1-.111a.465.465,0,0,1-.126-.363.51.51,0,0,1,.222-.355L15.478,8.378l6.016,4.3a.456.456,0,0,0,.151.109l8.148,5.828a.514.514,0,0,1,.224.358A.455.455,0,0,1,29.9,19.326Z" transform="translate(0.001 -7.333)" fill="#b1b1b1"/>
      <path id="Path_1454" data-name="Path 1454" d="M35.141,41.752a2.638,2.638,0,1,0,2.637-2.683A2.663,2.663,0,0,0,35.141,41.752Zm4.337,0a1.7,1.7,0,1,1-1.7-1.745A1.725,1.725,0,0,1,39.477,41.752Zm.011,13.462a.469.469,0,0,0,.469-.47v-.872a.469.469,0,1,0-.938,0v.872A.469.469,0,0,0,39.488,55.214ZM29.1,58.362a.47.47,0,0,0,.47-.47v-.872a.469.469,0,0,0-.938,0v.872A.468.468,0,0,0,29.1,58.362Zm1.744,0a.47.47,0,0,0,.47-.47v-.872a.469.469,0,0,0-.938,0v.872A.469.469,0,0,0,30.843,58.362Zm1.744,0a.469.469,0,0,0,.47-.47v-.872a.469.469,0,0,0-.938,0v.872A.468.468,0,0,0,32.587,58.362Zm10.348,0a.47.47,0,0,0,.47-.47v-.872a.469.469,0,0,0-.938,0v.872A.469.469,0,0,0,42.935,58.362Zm1.744,0a.47.47,0,0,0,.47-.47v-.872a.469.469,0,0,0-.938,0v.872A.468.468,0,0,0,44.679,58.362Zm1.745,0a.469.469,0,0,0,.469-.47v-.872a.469.469,0,0,0-.938,0v.872A.469.469,0,0,0,46.424,58.362Z" transform="translate(-22.299 -32.051)" fill="#b1b1b1"/>
    </g>
  </g>
</svg>
