<svg xmlns="http://www.w3.org/2000/svg" width="40.426" height="36" viewBox="0 0 40.426 36">
  <path id="location" d="M36.036,2.5a5.3,5.3,0,0,0-5.39,5.177,5.517,5.517,0,0,0,.816,2.537,20.591,20.591,0,0,0,1.677,2.542c1.2,1.595,2.406,2.867,2.406,2.867a.679.679,0,0,0,.984,0s1.2-1.273,2.408-2.867a20.569,20.569,0,0,0,1.674-2.542,5.517,5.517,0,0,0,.816-2.537A5.3,5.3,0,0,0,36.036,2.5Zm0,1.333a3.937,3.937,0,0,1,4.043,3.844,4.782,4.782,0,0,1-.655,1.909,19.571,19.571,0,0,1-1.571,2.372,25.162,25.162,0,0,1-1.816,2.167,25.019,25.019,0,0,1-1.819-2.167,19.513,19.513,0,0,1-1.566-2.372,4.8,4.8,0,0,1-.658-1.909A3.937,3.937,0,0,1,36.036,3.833Zm0,1.675a2,2,0,1,0,2.021,2A2.021,2.021,0,0,0,36.036,5.508Zm0,1.333a.667.667,0,1,1-.674.667A.66.66,0,0,1,36.036,6.841Zm-1.6,8.4L32.13,16.615l.692,1.143,2.311-1.372Zm-7.027,1.925a5.3,5.3,0,0,0-5.39,5.177,5.518,5.518,0,0,0,.816,2.537,19.2,19.2,0,0,0,1.405,2.162,2.787,2.787,0,0,0-1.548,2.32A2.81,2.81,0,0,0,24.2,31.678a6.681,6.681,0,0,0,6.424,0,2.808,2.808,0,0,0,1.5-2.315,2.788,2.788,0,0,0-1.545-2.323,19.184,19.184,0,0,0,1.4-2.159,5.518,5.518,0,0,0,.816-2.537A5.3,5.3,0,0,0,27.411,17.167Zm0,1.333a3.937,3.937,0,0,1,4.043,3.844,4.8,4.8,0,0,1-.658,1.909,19.5,19.5,0,0,1-1.566,2.372,24.976,24.976,0,0,1-1.819,2.167,24.977,24.977,0,0,1-1.819-2.167,19.5,19.5,0,0,1-1.566-2.372,4.8,4.8,0,0,1-.658-1.909A3.937,3.937,0,0,1,27.411,18.5Zm0,1.675a2,2,0,1,0,2.021,2A2.021,2.021,0,0,0,27.411,20.175Zm0,1.333a.667.667,0,1,1-.674.667A.66.66,0,0,1,27.411,21.508ZM6.39,25.167A5.3,5.3,0,0,0,1,30.347a5.508,5.508,0,0,0,.816,2.534A20.607,20.607,0,0,0,3.49,35.426,37.4,37.4,0,0,0,5.9,38.288a.679.679,0,0,0,.966.021l1.679-.477-.318-1.1c.347-.414.676-.792,1.063-1.3a20.628,20.628,0,0,0,1.677-2.544,5.508,5.508,0,0,0,.816-2.534A5.3,5.3,0,0,0,6.39,25.167Zm0,1.333a3.939,3.939,0,0,1,4.043,3.846,4.778,4.778,0,0,1-.658,1.9,19.528,19.528,0,0,1-1.566,2.375A24.834,24.834,0,0,1,6.39,36.79a24.973,24.973,0,0,1-1.816-2.164A19.586,19.586,0,0,1,3,32.251a4.764,4.764,0,0,1-.655-1.9A3.939,3.939,0,0,1,6.39,26.5Zm23.361,1.6c.677.367,1.029.837,1.029,1.258a1.484,1.484,0,0,1-.863,1.18,5.329,5.329,0,0,1-5.008,0,1.488,1.488,0,0,1-.866-1.18c0-.42.353-.889,1.029-1.255.972,1.213,1.848,2.182,1.848,2.182a.679.679,0,0,0,.984,0S28.778,29.319,29.751,28.105Zm-23.361.07a2,2,0,1,0,2.021,2A2.021,2.021,0,0,0,6.39,28.175Zm15.12.992-2.7.013.005,1.333,2.7-.013Zm-15.12.341a.667.667,0,1,1-.674.667A.66.66,0,0,1,6.39,29.509Zm10.825.466-1.732,2.042,1.032.857,1.732-2.044Zm-2.6,3.065-1.732,2.042,1.034.857L15.649,33.9Zm-2.561,2.406-2.59.737.374,1.281,2.59-.737Z" transform="translate(-1 -2.5)" fill="#b1b1b1"/>
</svg>
