<svg xmlns="http://www.w3.org/2000/svg" width="220" height="49.252" viewBox="0 0 220 49.252">
  <g id="Szk-SerifLogo" transform="translate(-3.998 -4.006)">
    <path id="Path_1233" data-name="Path 1233" d="M4,97.107a3.748,3.748,0,1,1,3.748,3.659A3.748,3.748,0,0,1,4,97.107Zm5.945,0a2.272,2.272,0,0,0-2.2-2.267,2.277,2.277,0,0,0,0,4.549,2.272,2.272,0,0,0,2.2-2.281Z" transform="translate(0 -47.508)" fill="#282828"/>
    <path id="Path_1234" data-name="Path 1234" d="M25.567,95.34h-2.2V94h5.917v1.363h-2.2v5.664H25.567Z" transform="translate(-10.297 -47.984)" fill="#282828"/>
    <path id="Path_1235" data-name="Path 1235" d="M42.117,95.34h-2.2V94h5.912v1.363h-2.2v5.664H42.117Z" transform="translate(-19.094 -47.984)" fill="#282828"/>
    <path id="Path_1236" data-name="Path 1236" d="M59.179,99.921H56.036l-.468,1.106H53.89L56.752,94h1.691l2.876,7.027H59.629Zm-.525-1.284L57.61,96.061,56.56,98.638Z" transform="translate(-26.52 -47.984)" fill="#282828"/>
    <path id="Path_1237" data-name="Path 1237" d="M71.72,94h1.644l1.3,4.708L76.227,94h1.644l1.56,4.731L80.752,94H82.4l-2.136,7.027H78.723L77.06,96.183l-1.677,4.844H73.856Z" transform="translate(-35.998 -47.984)" fill="#282828"/>
    <path id="Path_1238" data-name="Path 1238" d="M101.719,99.921H98.571l-.468,1.106H96.43L99.306,94H101l2.876,7.027h-1.705Zm-.525-1.284-1.049-2.576L99.1,98.638Z" transform="translate(-50.013 -47.984)" fill="#282828"/>
    <path id="Path_1239" data-name="Path 1239" d="M114.926,96.639a2.1,2.1,0,0,0,.628-.965.937.937,0,0,1,.033-1.874c.576,0,.974.534.974,1.284a2.853,2.853,0,0,1-1.087,1.958Z" transform="translate(-59.843 -47.878)" fill="#282828"/>
    <path id="Path_1240" data-name="Path 1240" d="M122.85,99.826l.871-1.035a3.509,3.509,0,0,0,2.342.937c.759,0,1.148-.351,1.148-.792s-.412-.656-1.49-.9c-1.485-.337-2.544-.759-2.544-2.127s1.068-2.2,2.6-2.2a4.061,4.061,0,0,1,2.764.979l-.792,1.087a3.279,3.279,0,0,0-2.024-.8c-.646,0-1.04.342-1.04.764,0,.511.422.675,1.513.937,1.518.337,2.525.792,2.525,2.094s-1.017,2.239-2.74,2.239a4.535,4.535,0,0,1-3.139-1.185Z" transform="translate(-64.299 -47.828)" fill="#282828"/>
    <path id="Path_1241" data-name="Path 1241" d="M148.77,94h3.574a1.892,1.892,0,0,1,2.136,1.766,1.7,1.7,0,0,1-.984,1.569,1.982,1.982,0,0,1,1.293,1.808,2.048,2.048,0,0,1-2.309,1.907h-3.71Zm3.195,2.844c.567,0,.965-.328.965-.782s-.4-.768-.965-.768h-1.682v1.518Zm.234,2.914a.876.876,0,1,0,0-1.724h-1.916v1.724Z" transform="translate(-78.322 -47.984)" fill="#282828"/>
    <path id="Path_1242" data-name="Path 1242" d="M168.132,95.34v1.405h3.541v1.368h-3.541v1.551h3.912v1.363H166.61V94h5.434v1.363Z" transform="translate(-87.969 -47.984)" fill="#282828"/>
    <path id="Path_1243" data-name="Path 1243" d="M182.3,99.826l.876-1.035a3.485,3.485,0,0,0,2.342.937c.759,0,1.152-.351,1.152-.792s-.412-.656-1.49-.9c-1.49-.337-2.548-.759-2.548-2.127s1.068-2.2,2.609-2.2a4.057,4.057,0,0,1,2.759.979l-.787,1.087a3.279,3.279,0,0,0-2.014-.782c-.646,0-1.035.342-1.035.764,0,.511.422.675,1.508.937,1.518.337,2.525.792,2.525,2.094s-1.017,2.239-2.74,2.239A4.544,4.544,0,0,1,182.3,99.826Z" transform="translate(-96.46 -47.828)" fill="#282828"/>
    <path id="Path_1244" data-name="Path 1244" d="M200.827,95.34h-2.2V94h5.912v1.363h-2.2v5.664h-1.518Z" transform="translate(-105.296 -47.984)" fill="#282828"/>
    <path id="Path_1245" data-name="Path 1245" d="M228.611,101.027l-1.593-2.286H225.9v2.286H224.39V94h3.171a2.444,2.444,0,0,1,2.661,2.38,2.291,2.291,0,0,1-1.6,2.206l1.738,2.464Zm-2.731-3.673h1.5c.75,0,1.265-.394,1.265-1s-.515-.993-1.265-.993h-1.5Z" transform="translate(-119.232 -47.984)" fill="#282828"/>
    <path id="Path_1246" data-name="Path 1246" d="M243.358,95.34v1.405H246.9v1.368h-3.542v1.551h3.912v1.363H241.84V94h5.429v1.363Z" transform="translate(-128.666 -47.984)" fill="#282828"/>
    <path id="Path_1247" data-name="Path 1247" d="M262.563,99.921H259.42l-.468,1.106H257.26L260.136,94h1.686l2.876,7.027h-1.705Zm-.525-1.284-1.049-2.576-1.04,2.576Z" transform="translate(-137.032 -47.984)" fill="#282828"/>
    <path id="Path_1248" data-name="Path 1248" d="M282.286,99.664v1.363H277.25V94h1.522v5.687Z" transform="translate(-147.818 -47.984)" fill="#282828"/>
    <path id="Path_1249" data-name="Path 1249" d="M302.522,95.34v1.405h3.542v1.368h-3.542v1.551h3.912v1.363H301V94h5.434v1.363Z" transform="translate(-160.671 -47.984)" fill="#282828"/>
    <path id="Path_1250" data-name="Path 1250" d="M316.7,99.826l.871-1.035a3.5,3.5,0,0,0,2.319.937c.759,0,1.152-.351,1.152-.792s-.412-.656-1.49-.9c-1.49-.337-2.548-.759-2.548-2.127s1.068-2.2,2.609-2.2a4.071,4.071,0,0,1,2.764.979l-.792,1.087a3.279,3.279,0,0,0-2.014-.782c-.646,0-1.035.342-1.035.764,0,.511.422.675,1.508.937,1.522.337,2.525.792,2.525,2.094s-1.017,2.239-2.74,2.239a4.525,4.525,0,0,1-3.129-1.2Z" transform="translate(-169.171 -47.828)" fill="#282828"/>
    <path id="Path_1251" data-name="Path 1251" d="M335.206,95.34H333V94h5.912v1.363h-2.164v5.664H335.23Z" transform="translate(-177.99 -47.984)" fill="#282828"/>
    <path id="Path_1252" data-name="Path 1252" d="M352.284,99.921h-3.143l-.468,1.106H347L349.876,94h1.691l2.876,7.027h-1.705Zm-.525-1.284-1.045-2.576-1.049,2.576Z" transform="translate(-185.587 -47.984)" fill="#282828"/>
    <path id="Path_1253" data-name="Path 1253" d="M366.447,95.34h-2.2V94h5.917v1.363h-2.2v5.664h-1.522Z" transform="translate(-194.897 -47.984)" fill="#282828"/>
    <path id="Path_1254" data-name="Path 1254" d="M382.708,95.34v1.405h3.546v1.368h-3.542v1.551h3.912v1.363H381.19V94h5.429v1.363Z" transform="translate(-204.815 -47.984)" fill="#282828"/>
    <path id="Path_1255" data-name="Path 1255" d="M407.577,95.34h-2.2V94h5.912v1.363h-2.2v5.664h-1.518Z" transform="translate(-217.672 -47.984)" fill="#282828"/>
    <path id="Path_1256" data-name="Path 1256" d="M423.838,95.34v1.405h3.542v1.368h-3.542v1.551h3.912v1.363H422.32V94h5.429v1.363Z" transform="translate(-226.676 -47.984)" fill="#282828"/>
    <path id="Path_1257" data-name="Path 1257" d="M443.038,99.921H439.9l-.468,1.106H437.74L440.612,94h1.7l2.876,7.027h-1.7Zm-.52-1.284-1.049-2.576-1.045,2.576Z" transform="translate(-234.873 -47.984)" fill="#282828"/>
    <path id="Path_1258" data-name="Path 1258" d="M457.85,94h1.508l2.188,3.982L463.72,94h1.522v7.027H463.72V96.633l-2.174,3.987-2.188-3.987v4.394H457.85Z" transform="translate(-245.563 -47.984)" fill="#282828"/>
    <path id="Path_1259" data-name="Path 1259" d="M4,38.205V30.48H5.405c1.195,5.34,5.153,8.207,9.491,8.207,3.794,0,6.558-2.117,6.558-5.472,0-2.647-1.677-4.371-6.048-6l-2.342-.885C8.216,24.479,4.4,22.273,4.4,16.886,4.4,11.063,8.9,7.4,15.96,7.4a21.207,21.207,0,0,1,9.711,2.3v6.928H24.3C22.93,12.3,20.021,9.3,15.866,9.3c-3.443,0-5.514,2.206-5.514,5.12,0,2.516,1.541,4.216,5.734,5.823l2.342.885c6.357,2.427,8.994,4.984,8.994,9.706,0,6-4.633,9.753-12.4,9.753A25.718,25.718,0,0,1,4,38.205Z" transform="translate(-0.001 -1.804)" fill="#282828"/>
    <path id="Path_1260" data-name="Path 1260" d="M81.938,44.057a12.371,12.371,0,0,1-10.9,6.043c-6.4,0-11.917-3.837-11.917-11.913,0-7.875,5.12-12.887,12.8-12.887,7.814,0,10.306,5.12,9.884,11.43H65.875c.047,6.928,3.223,9.664,7.547,9.664a9.242,9.242,0,0,0,7.2-3.134ZM65.959,34.688h9.8c.042-5.073-1.635-7.5-4.413-7.5-3.134,0-4.989,3.092-5.387,7.5Z" transform="translate(-29.3 -11.319)" fill="#282828"/>
    <path id="Path_1261" data-name="Path 1261" d="M133.644,41.959l-.534,8.207H112.18v-.937l12.648-20.738h-4.7c-3.883,0-5.153,1.874-6.221,5.425h-1.237v-7.5h20.12V27.3l-12.728,20.79h5.518c3.926,0,5.294-1.874,6.8-6.132Z" transform="translate(-57.504 -11.914)" fill="#282828"/>
    <path id="Path_1262" data-name="Path 1262" d="M161.963,38c2.759-.356,3.279-.824,3.279-3.092V12.271c0-2.342-.839-3.837-3.312-4.188V6.978l8.694-1.368H171.8v29.3c0,2.253.75,2.736,3.134,3.092v1.1H161.963Z" transform="translate(-83.949 -0.853)" fill="#282828"/>
    <path id="Path_1263" data-name="Path 1263" d="M189.65,37.151c2.778-.356,3.307-.839,3.307-3.092V20.867c0-2.342-.839-3.837-3.307-4.188v-1.11l8.694-1.368h1.148V34.059c0,2.253.75,2.736,3.087,3.092v1.1H189.65Zm2.6-29.438A3.626,3.626,0,0,1,196,4.008c2.206,0,3.8,1.321,3.8,3.527a3.677,3.677,0,0,1-3.8,3.748,3.445,3.445,0,0,1-3.748-3.57Z" transform="translate(-98.683)" fill="#282828"/>
    <path id="Path_1264" data-name="Path 1264" d="M230.179,38v1.1H217.25V38c2.736-.356,3.312-.839,3.312-3.092V12.271c0-2.342-.885-3.837-3.312-4.188V6.978L225.9,5.61h1.143v29.3C227.045,37.179,227.8,37.647,230.179,38Zm15.4.042V39.1a31.105,31.105,0,0,1-4.282.267,7.116,7.116,0,0,1-6.4-3l-7.1-10.194,6.4-6a2.827,2.827,0,0,0,1.012-1.808c0-.974-.97-1.813-2.736-1.944V15.363h12.049v1.059a16.156,16.156,0,0,0-6.132,3.354l-4.769,3.883,7.4,10.02C243.2,36.589,244.434,38.046,245.582,38.046Z" transform="translate(-113.354 -0.853)" fill="#282828"/>
    <path id="Path_1265" data-name="Path 1265" d="M282.856,70.678a2.263,2.263,0,0,1,2.3-2.342,2.211,2.211,0,0,1,2.342,2.3,2.342,2.342,0,0,1-2.342,2.342,2.178,2.178,0,0,1-2.3-2.3Z" transform="translate(-148.225 -34.192)" fill="#282828"/>
    <path id="Path_1266" data-name="Path 1266" d="M292.19,38.877c0-7.373,4.366-12.447,11.032-12.447,4.811,0,7.987,2.427,7.987,4.942a1.939,1.939,0,0,1-1.944,2.075l-.529-1.368c-1.1-3.134-3.176-4.549-5.959-4.549-4.984,0-7.5,4.638-7.5,10.507,0,6.839,3.354,10.676,8.385,10.676a8.569,8.569,0,0,0,7.369-3.794l1.017.576a10.461,10.461,0,0,1-9.224,5.2C296.6,50.7,292.19,46.288,292.19,38.877Z" transform="translate(-153.188 -11.92)" fill="#282828"/>
    <path id="Path_1267" data-name="Path 1267" d="M337.59,38.741c0-7.327,5.153-12.311,11.561-12.311,6.09,0,11.168,4.544,11.168,11.96,0,7.28-5.153,12.311-11.561,12.311C342.668,50.7,337.59,46.114,337.59,38.741Zm19.464-.089c0-6.53-3.312-11.032-8.207-11.032-5.12,0-8.034,4.061-8.034,10.812,0,6.558,3.354,11.079,8.254,11.079C354.178,49.511,357.054,45.435,357.054,38.652Z" transform="translate(-177.32 -11.92)" fill="#282828"/>
    <path id="Path_1268" data-name="Path 1268" d="M426.359,49.419v.75H416.077v-.75c2.914-.22,3.705-.572,3.705-3.087V35.126c0-4.769-1.85-6.975-5.153-6.975-4.15,0-7.678,3.532-7.678,8.694v9.486c0,2.516.792,2.867,3.705,3.087v.75H400.412v-.75c2.909-.22,3.705-.572,3.705-3.087V35.126c0-4.769-1.874-6.975-5.153-6.975-4.15,0-7.725,3.532-7.725,8.694v9.486c0,2.516.839,2.867,3.748,3.087v.75H384.7v-.75c2.956-.22,3.748-.572,3.748-3.087v-13.9c0-2.778-.839-3.616-3.748-3.794v-.8l5.87-1.1h.44v5.65h.178a8.9,8.9,0,0,1,8.605-5.959c3.972,0,6.4,1.9,6.971,6.048a9.09,9.09,0,0,1,8.694-6.048c4.633,0,7.149,2.6,7.149,8.338V46.332C422.607,48.847,423.4,49.18,426.359,49.419Z" transform="translate(-202.361 -11.917)" fill="#282828"/>
  </g>
</svg>
