<svg xmlns="http://www.w3.org/2000/svg" width="47.5" height="37.109" viewBox="0 0 47.5 37.109">
  <path id="HOUSE" d="M46.758,42.188h-6.9v-1.2l.445.46a.527.527,0,0,0,.742,0,.571.571,0,0,0,0-.787l-.46-.475h.082a.527.527,0,0,0,.379-.163.571.571,0,0,0,0-.787l-.46-.475h.082a.527.527,0,0,0,.379-.163.571.571,0,0,0,0-.787l-.46-.475h.082a.527.527,0,0,0,.379-.163.571.571,0,0,0,0-.787l-.46-.475h.082a.527.527,0,0,0,.379-.163.571.571,0,0,0,0-.787l-1.366-1.41a.527.527,0,0,0-.742,0l-1.366,1.41a.571.571,0,0,0,0,.787.52.52,0,0,0,.46.148l-.46.475a.571.571,0,0,0,0,.787.52.52,0,0,0,.46.148l-.46.475a.571.571,0,0,0,0,.787.52.52,0,0,0,.46.148l-.46.475a.571.571,0,0,0,0,.787.52.52,0,0,0,.46.148l-.46.475a.571.571,0,0,0,0,.787.527.527,0,0,0,.742,0l.445-.46v1.262H34.549V20.664h2.16a.742.742,0,0,0,.742-.742V16.953a.742.742,0,0,0-.742-.742h-2.16V7.3a.742.742,0,0,0-.742-.742H26.533a.7.7,0,0,0-.275.059.742.742,0,0,0-.237.163l-1.21,1.262h-8.98a.742.742,0,0,0-.742.742v9.263l-1.945,2.011a.755.755,0,0,0-.208.527v8.238H10.8a.742.742,0,0,0-.742.742v2.969a.742.742,0,0,0,.742.742h2.16v8.906H7.125V39.345L8.253,40.51a.527.527,0,0,0,.742,0,.571.571,0,0,0,0-.787l-1.87-1.989v-.542l1.128,1.165a.527.527,0,0,0,.742,0,.571.571,0,0,0,0-.787l-1.87-1.915v-.542L8.253,36.25a.527.527,0,0,0,.742,0,.571.571,0,0,0,0-.787l-1.87-1.922V33l1.128,1.165a.527.527,0,0,0,.742,0,.571.571,0,0,0,0-.787l-1.87-1.952v-.542l1.128,1.165a.527.527,0,0,0,.742,0,.571.571,0,0,0,0-.787L6.969,29.155a.527.527,0,0,0-.742,0L4.156,31.263a.571.571,0,0,0,0,.787.527.527,0,0,0,.742,0l1.128-1.165v.542l-1.87,1.952a.571.571,0,0,0,0,.787.527.527,0,0,0,.742,0L6.027,33v.542l-1.87,1.967a.571.571,0,0,0,0,.742.527.527,0,0,0,.742,0l1.128-1.165v.542l-1.87,1.982a.571.571,0,0,0,0,.787.527.527,0,0,0,.742,0L6.027,37.23v.5l-1.87,1.982a.571.571,0,0,0,0,.787.527.527,0,0,0,.742,0l1.128-1.165v2.85H.742a.742.742,0,0,0,0,1.484H46.758a.742.742,0,0,0,0-1.484ZM35.981,19.18H24.492V17.7H35.981ZM16.551,9.531h6.821l-6.821,7.036ZM11.519,30.313H23.008V31.8H11.519Zm2.88,2.969H23.75a.742.742,0,0,0,.742-.742V29.57a.742.742,0,0,0-.742-.742H14.391V20.887l1.937-2h0L25.62,9.316h0l1.225-1.269H33.1v8.164H23.75a.742.742,0,0,0-.742.742v2.969a.742.742,0,0,0,.742.742h9.359V31.8H28.07a.742.742,0,0,0-.742.742v9.648H14.391Zm14.391,8.906V33.281h4.32v8.906Z" transform="translate(0 -6.563)" fill="#b1b1b1"/>
</svg>
