<svg xmlns="http://www.w3.org/2000/svg" width="36.656" height="36.656" viewBox="0 0 36.656 36.656">
  <g id="market-value" transform="translate(-7 -7)">
    <path id="Path_1444" data-name="Path 1444" d="M30,32.9c-2.757,0-5-1.545-5-3.443H23c0,2.423,2.613,4.429,6,4.765v1.432h2V34.224c3.387-.336,6-2.342,6-4.765,0-2.287-2.2-3.854-6.711-4.791C26.73,23.931,25,22.795,25,21.2c0-1.9,2.243-3.443,5-3.443S35,19.3,35,21.2h2c0-2.423-2.613-4.429-6-4.765V15H29v1.432c-3.387.336-6,2.342-6,4.765,0,2.255,2.258,3.867,6.711,4.791C33.319,26.736,35,27.839,35,29.459,35,31.358,32.757,32.9,30,32.9Z" transform="translate(-4.672)" fill="#b1b1b1"/>
    <path id="Path_1445" data-name="Path 1445" d="M25.328,7A18.349,18.349,0,0,0,7,25.328H8.594A16.749,16.749,0,1,1,11.6,34.891h3.367V33.3H9.391v5.578h1.594V36.726A18.325,18.325,0,1,0,25.328,7Z" fill="#b1b1b1"/>
  </g>
</svg>
