<svg xmlns="http://www.w3.org/2000/svg" width="21.018" height="36" viewBox="0 0 21.018 36">
  <g id="price-tag" transform="translate(-19.079 -11.588)">
    <path id="Path_1446" data-name="Path 1446" d="M40.09,26.89a4.627,4.627,0,0,0-1.144-2.831l-7.995-8.281a1.9,1.9,0,0,0-2.068-.452,11.347,11.347,0,0,0-1.975-2.732c-1.144-1.1-1.98-1.1-2.481-.907-.584.229-1.269.93-1.214,2.973a15.171,15.171,0,0,0,1.115,4.9l.07.177-4.177,4.333A4.626,4.626,0,0,0,19.079,26.9l.007,18.735a1.958,1.958,0,0,0,1.956,1.955h0l17.1-.007A1.958,1.958,0,0,0,40.1,45.625ZM24.248,14.632c-.035-1.288.278-1.872.557-1.981.514-.2,1.874.721,3.239,3.3l-2.853,2.96A13.83,13.83,0,0,1,24.248,14.632ZM38.142,46.546l-17.1.007v0a.921.921,0,0,1-.92-.92L20.114,26.9a3.623,3.623,0,0,1,.852-2.113l3.88-4.025A14.413,14.413,0,0,0,26.6,23.633a3.053,3.053,0,0,0-.032.445,3.018,3.018,0,0,0,3.015,3.014h0a3.013,3.013,0,1,0-2.559-4.613,14.822,14.822,0,0,1-1.408-2.52L28.955,16.5a.863.863,0,0,1,1.251,0L38.2,24.778a3.624,3.624,0,0,1,.854,2.113l.007,18.735A.921.921,0,0,1,38.142,46.546ZM27.729,24.767a2.448,2.448,0,0,0,1.473.6,1.47,1.47,0,0,0,.539-.1c.771-.3,1.19-1.216,1.216-2.612a1.978,1.978,0,0,1-1.373,3.4v0A1.983,1.983,0,0,1,27.729,24.767Zm2.184-2.642c.069,1.324-.214,2.045-.549,2.176a.413.413,0,0,1-.151.026c-.3,0-.818-.249-1.477-.963a1.977,1.977,0,0,1,2.176-1.239Z" fill="#b1b1b1"/>
    <path id="Path_1447" data-name="Path 1447" d="M30.05,35.63c-1.675-.564-2.415-1.055-2.423-2.064-.006-.737.617-1.622,2.269-1.635a5.35,5.35,0,0,1,1.241.052,1.041,1.041,0,0,0,1.416-.555l.051-.142a6.142,6.142,0,0,0-2.54-.492l-.011-1.436a.626.626,0,0,0-1.243.009l.012,1.538c-1.718.344-2.8,1.448-2.791,2.833.011,1.521,1.258,2.441,3.238,3.034,1.639.548,2.29,1.12,2.3,2.129.008,1.089-.92,1.849-2.519,1.861a5.858,5.858,0,0,1-2.807-.683l-.059.172a1.125,1.125,0,0,0,.744,1.387,6.5,6.5,0,0,0,1.98.295l.011,1.435a.626.626,0,0,0,1.243-.009l-.012-1.532c2.037-.367,3.009-1.636,3-3.048C33.134,37.192,32.1,36.335,30.05,35.63Z" fill="#b1b1b1"/>
  </g>
</svg>
